# xmcd
#
# Track frame offsets:
# 168
# 8013
# 24582
# 45889
# 66383
# 80104
# 95519
# 112449
# 128306
# 146136
# 159002
# 172165
# 192313
# 217160
# 227411
#
# Disc length: 3233 seconds
#
#
# Revision: 0
# Processed by: cddbd v1.5.1PL2 Copyright (c) Steve Scherf et al.
# Submitted via: FreeRIP 2.945 
#
DISCID=cc0c9f0f
DTITLE=아가미 - 아가미
DYEAR=2006
DGENRE=
TTITLE0=INTRO_숨-이자람
TTITLE1=불행아-이적
TTITLE2=사랑노래-스윗소로우
TTITLE3=미칠것같은이세상-WindyCity
TTITLE4=영산강-정재일
TTITLE5=빼앗긴들에도봄은오는가-채수현이은혜김현정
TTITLE6=불나비-나비효과
TTITLE7=민주_햇살-MOT
TTITLE8=타는 목마름으로-전재덕
TTITLE9=어머니-문화활동가와그친구들
TTITLE10=임을 위한 행진곡_Part1-한대수외
TTITLE11=임을 위한 행진곡_Part2-한대수외
TTITLE12=임을 위한 행진곡_Part3-한대수외
TTITLE13=오월이야기-정세훈
TTITLE14=민들레-민수연
EXTD=
EXTT0=
EXTT1=
EXTT2=
EXTT3=
EXTT4=
EXTT5=
EXTT6=
EXTT7=
EXTT8=
EXTT9=
EXTT10=
EXTT11=
EXTT12=
EXTT13=
EXTT14=
PLAYORDER=
